<svg width="100" height="164" viewBox="0 0 100 164" fill="none" xmlns="http://www.w3.org/2000/svg">
<g clip-path="url(#clip0_7829_130)">
<path d="M50.0977 13.3319C64.3053 31.3686 71.8896 53.6109 71.6146 76.4341V81.8823L76.3021 84.7345C82.3587 88.401 86.8756 94.0877 89.0299 100.758C87.1385 99.3659 85.1597 98.0921 83.1055 96.9448L70.6055 89.9263L68.3594 104.091C68.1648 105.343 67.904 106.584 67.5781 107.809H32.5521C32.0312 106.207 31.6081 104.604 31.2174 102.938L28.3854 90.1186L16.862 96.5281C14.9368 97.6047 13.0781 98.7926 11.2956 100.085C13.4918 93.4918 17.9145 87.8371 23.8281 84.0615L28.2878 81.2093V76.1457C28.3682 53.415 36.0437 31.342 50.1302 13.3319H50.0977ZM50.1302 0C49.3997 0.00177412 48.6944 0.263571 48.1445 0.737101L47.8516 0.993484C29.0806 21.662 18.6573 48.3883 18.5547 76.1137C10.5892 81.2016 4.69298 88.8834 1.89643 97.8168C-0.900129 106.75 -0.419189 116.367 3.2552 124.987C7.12597 116.57 13.5966 109.572 21.7448 104.989C22.562 108.474 23.6502 111.892 25 115.212C25.1712 115.85 25.5506 116.416 26.0799 116.821C26.6092 117.226 27.2591 117.449 27.9297 117.455H73.112C74.0234 117.455 74.9349 116.59 75.3906 115.244C76.708 112.087 77.6263 108.783 78.125 105.405C86.2887 109.969 92.7647 116.973 96.6146 125.403C100.511 116.826 101.114 107.149 98.3123 98.1666C95.5107 89.1848 89.4945 81.5085 81.3802 76.5623C81.7021 48.6735 71.334 21.69 52.3437 0.993484C52.0609 0.682203 51.7149 0.432908 51.3279 0.261759C50.941 0.090611 50.5218 0.00143068 50.0977 0L50.1302 0Z" fill="#4EA8DE"/>
<path d="M50.0977 73.4537C47.5974 73.4536 45.1531 72.7248 43.0729 71.3592C40.9927 69.9935 39.3696 68.0522 38.4084 65.7798C37.4472 63.5074 37.1908 61.0057 37.6715 58.5901C38.1523 56.1745 39.3486 53.953 41.1098 52.2058C42.8709 50.4585 45.1181 49.2637 47.568 48.7718C50.0178 48.28 52.5608 48.5132 54.8762 49.442C57.1917 50.3709 59.176 51.9538 60.5791 53.9912C61.9821 56.0287 62.7411 58.4294 62.7604 60.8909V60.8909C62.7994 62.4861 62.5187 64.0732 61.9344 65.5615C61.3501 67.0498 60.4736 68.4102 59.3551 69.565C58.2366 70.7197 56.898 71.6462 55.4157 72.2915C53.9334 72.9367 52.3364 73.2881 50.7162 73.3255C50.5113 73.3578 50.3025 73.3578 50.0977 73.3255V73.4537Z" fill="#4EA8DE"/>
<path d="M67.7083 125.435C66.8938 125.41 66.0823 125.544 65.3214 125.832C64.5606 126.119 63.8656 126.553 63.2774 127.108C62.6892 127.663 62.2195 128.329 61.8959 129.065C61.5724 129.801 61.4015 130.594 61.3932 131.396V150.304C61.3932 151.953 62.0586 153.535 63.2429 154.701C64.4272 155.867 66.0334 156.522 67.7083 156.522C69.3832 156.522 70.9895 155.867 72.1738 154.701C73.3581 153.535 74.0234 151.953 74.0234 150.304V131.653C74.0494 130.853 73.9136 130.057 73.6238 129.31C73.3341 128.563 72.8962 127.88 72.3356 127.302C71.7751 126.723 71.1032 126.26 70.359 125.939C69.6149 125.619 68.8134 125.448 68.0013 125.435H67.7083Z" fill="#5E60CE"/>
<path d="M32.5521 125.435C31.7237 125.392 30.8951 125.514 30.1153 125.792C29.3356 126.071 28.6208 126.501 28.0134 127.057C27.406 127.613 26.9184 128.284 26.5797 129.029C26.2409 129.775 26.058 130.58 26.0417 131.396V150.304C26.0417 151.953 26.707 153.535 27.8913 154.701C29.0756 155.867 30.6819 156.522 32.3568 156.522C34.0316 156.522 35.6379 155.867 36.8222 154.701C38.0065 153.535 38.6719 151.953 38.6719 150.304V131.653C38.6979 130.853 38.562 130.057 38.2723 129.31C37.9825 128.563 37.5446 127.88 36.9841 127.302C36.4236 126.723 35.7516 126.26 35.0075 125.939C34.2633 125.619 33.4618 125.448 32.6497 125.435H32.5521Z" fill="#5E60CE"/>
<path d="M49.6419 125.435C48.8297 125.418 48.022 125.559 47.2649 125.849C46.5079 126.14 45.8165 126.574 45.23 127.128C44.6436 127.681 44.1736 128.343 43.8471 129.076C43.5205 129.808 43.3437 130.597 43.3268 131.396V157.451C43.3268 159.1 43.9922 160.681 45.1765 161.847C46.3608 163.013 47.967 163.668 49.6419 163.668C51.3168 163.668 52.9231 163.013 54.1074 161.847C55.2917 160.681 55.957 159.1 55.957 157.451V131.813C55.983 131.014 55.8472 130.217 55.5574 129.47C55.2677 128.723 54.8298 128.041 54.2692 127.462C53.7087 126.883 53.0368 126.42 52.2926 126.1C51.5485 125.779 50.747 125.608 49.9349 125.596L49.6419 125.435Z" fill="#5E60CE"/>
</g>
<defs>
<clipPath id="clip0_7829_130">
<rect width="100" height="163.636" rx="32" fill="white"/>
</clipPath>
</defs>
</svg>
